<svg xmlns="http://www.w3.org/2000/svg" width="1240" height="1240"><path d="M253 .653c-41.288 4.103-70.597 12.132-102.378 28.045C111.175 48.45 75.567 78.922 50.358 114.5 24.107 151.547 8.214 192.613 1.788 240c-1.895 13.978-1.895 746.022 0 760 7.276 53.651 26.602 99.07 59.571 140 7.772 9.648 28.993 30.869 38.641 38.641 40.93 32.969 86.349 52.295 140 59.571 13.978 1.895 746.022 1.895 760 0 47.387-6.426 88.453-22.319 125.5-48.57 23.369-16.558 47.584-40.773 64.142-64.142 27.002-38.107 44.473-84.257 48.457-128 .601-6.6 1.499-12.781 1.997-13.736 1.298-2.494 1.203-729.067-.096-728.264-.608.376-1-1.082-1-3.717 0-11.254-4.905-38.711-10.144-56.783-7.874-27.162-22.072-56.308-39.214-80.5-16.558-23.369-40.773-47.584-64.142-64.142-36.59-25.927-74.686-40.833-124-48.52C995.23.861 913.799.56 625 .448 422.325.37 254.925.462 253 .653M.495 620c0 200.475.115 282.488.255 182.25.14-100.237.14-264.262 0-364.5C.61 337.513.495 419.525.495 620m164.506 155.123c-1.375.549-3.555 1.983-4.846 3.187-7.6 7.097-6.66 17.556 2.168 24.098 2.792 2.069 3.578 2.095 72.619 2.362l69.796.269-.465-11.269c-.255-6.199-.019-13.183.525-15.52l.989-4.25-69.143.063c-43.45.04-70.073.434-71.643 1.06m258.2 3.122c.545 2.34.782 9.32.526 15.51l-.463 11.254 325.794-.254 325.795-.255 2.762-2.062c5.107-3.813 6.885-7.154 6.885-12.938 0-5.784-1.778-9.125-6.885-12.938l-2.762-2.062-326.321-.255-326.321-.254.99 4.254m438.201 106.7c-21.367 3.35-38.61 17.254-47 37.897l-2.299 5.658-323.478.5-323.478.5-2.762 2.062c-4.949 3.695-6.885 7.193-6.885 12.438 0 5.245 1.936 8.743 6.885 12.438l2.762 2.062 323.478.5 323.478.5 2.299 5.658c7.435 18.294 21.333 30.917 40.098 36.423 8.03 2.356 22.97 2.356 31 0 18.766-5.506 32.663-18.13 40.098-36.423l2.299-5.658 73.479-.5c72.257-.492 73.524-.534 76.239-2.562 4.949-3.695 6.885-7.193 6.885-12.438 0-5.245-1.936-8.743-6.885-12.438-2.715-2.028-3.982-2.07-76.239-2.562l-73.479-.5-2.299-5.658c-3.711-9.13-7.534-14.949-14.021-21.342-12.796-12.611-32.94-19.257-50.175-16.555M164.45 1085.407c-4.074 1.774-8.223 6.867-9.009 11.057-1.23 6.556 3.204 13.952 9.874 16.472 1.954.739 62.818 1.064 199 1.064H560.5v-30l-196.5.039c-161.116.032-197.049.278-199.55 1.368M679.5 1099v15.015l197.677-.258 197.676-.257 2.762-2.062c4.949-3.695 6.885-7.193 6.885-12.438 0-5.245-1.936-8.743-6.885-12.438l-2.762-2.062-197.676-.257-197.677-.258V1099" fill="undefined" fill-rule="evenodd"/></svg>