<?xml version="1.0" encoding="UTF-8" standalone="no"?><!-- Generator: Gravit.io --><svg xmlns="http://www.w3.org/2000/svg" xmlns:xlink="http://www.w3.org/1999/xlink" style="isolation:isolate" viewBox="0 0 1240 1240" width="1240pt" height="1240pt"><defs><clipPath id="_clipPath_uVi9KaW5kQf6LwTJI7n0BP0BTGy6XuWv"><rect width="1240" height="1240"/></clipPath></defs><g clip-path="url(#_clipPath_uVi9KaW5kQf6LwTJI7n0BP0BTGy6XuWv)"><path d="M 272 0 L 968 0 C 1118.121 0 1240 121.879 1240 272 L 1240 968 C 1240 1118.121 1118.121 1240 968 1240 L 272 1240 C 121.879 1240 0 1118.121 0 968 L 0 272 C 0 121.879 121.879 0 272 0 Z" style="stroke:none;fill:#EBEBEB;stroke-miterlimit:10;"/><clipPath id="_clipPath_nAmtNIUsWLfvlqpWZEa3SW5FqiFCWkT1"><path d="M 272 0 L 968 0 C 1118.121 0 1240 121.879 1240 272 L 1240 968 C 1240 1118.121 1118.121 1240 968 1240 L 272 1240 C 121.879 1240 0 1118.121 0 968 L 0 272 C 0 121.879 121.879 0 272 0 Z" style="stroke:none;fill:#EBEBEB;stroke-miterlimit:10;"/></clipPath><g clip-path="url(#_clipPath_nAmtNIUsWLfvlqpWZEa3SW5FqiFCWkT1)"><rect x="0" y="0" width="310" height="310" transform="matrix(1,0,0,1,0,0)" fill="rgb(26,188,156)"/><rect x="310" y="0" width="310" height="310" transform="matrix(1,0,0,1,0,0)" fill="rgb(46,204,113)"/><rect x="620" y="0" width="310" height="310" transform="matrix(1,0,0,1,0,0)" fill="rgb(52,152,219)"/><rect x="930" y="0" width="310" height="310" transform="matrix(1,0,0,1,0,0)" fill="rgb(155,89,182)"/><rect x="0" y="310" width="310" height="310" transform="matrix(1,0,0,1,0,0)" fill="rgb(241,196,15)"/><rect x="310" y="310" width="310" height="310" transform="matrix(1,0,0,1,0,0)" fill="rgb(230,126,34)"/><rect x="620" y="310" width="310" height="310" transform="matrix(1,0,0,1,0,0)" fill="rgb(231,76,60)"/><rect x="930" y="310" width="310" height="310" transform="matrix(1,0,0,1,0,0)" fill="rgb(127,140,141)"/><rect x="0" y="620" width="1240" height="620" transform="matrix(1,0,0,1,0,0)" fill="rgb(93,93,93)"/><g><path d="M 170 775 L 1070 775 C 1078.279 775 1085 781.721 1085 790 L 1085 790 C 1085 798.279 1078.279 805 1070 805 L 170 805 C 161.721 805 155 798.279 155 790 L 155 790 C 155 781.721 161.721 775 170 775 Z" style="stroke:none;fill:#EBEBEB;stroke-miterlimit:10;"/><circle vector-effect="non-scaling-stroke" cx="364" cy="791.0000000000005" r="60" fill="rgb(255,0,0)"/></g><g><path d="M 170 774 L 1070 774 C 1078.279 774 1085 780.721 1085 789 L 1085 789 C 1085 797.279 1078.279 804 1070 804 L 170 804 C 161.721 804 155 797.279 155 789 L 155 789 C 155 780.721 161.721 774 170 774 Z" style="stroke:none;fill:#EBEBEB;stroke-miterlimit:10;"/><circle vector-effect="non-scaling-stroke" cx="364" cy="790" r="60" fill="rgb(255,0,0)"/></g><g><path d="M 170 929 L 1070 929 C 1078.279 929 1085 935.721 1085 944 L 1085 944 C 1085 952.279 1078.279 959 1070 959 L 170 959 C 161.721 959 155 952.279 155 944 L 155 944 C 155 935.721 161.721 929 170 929 Z" style="stroke:none;fill:#EBEBEB;stroke-miterlimit:10;"/><circle vector-effect="non-scaling-stroke" cx="870" cy="943.9999999999994" r="60" fill="rgb(0,255,0)"/></g><g><path d="M 170 1084 L 1070 1084 C 1078.279 1084 1085 1090.721 1085 1099 L 1085 1099 C 1085 1107.279 1078.279 1114 1070 1114 L 170 1114 C 161.721 1114 155 1107.279 155 1099 L 155 1099 C 155 1090.721 161.721 1084 170 1084 Z" style="stroke:none;fill:#EBEBEB;stroke-miterlimit:10;"/><circle vector-effect="non-scaling-stroke" cx="620" cy="1098.9999999999995" r="60" fill="rgb(0,0,255)"/></g></g></g></svg>