<?xml version="1.0" encoding="UTF-8" standalone="no"?><!-- Generator: Gravit.io --><svg xmlns="http://www.w3.org/2000/svg" xmlns:xlink="http://www.w3.org/1999/xlink" style="isolation:isolate" viewBox="0 0 640 640" width="640pt" height="640pt"><defs><clipPath id="_clipPath_SbGmX3xUZbEV5C44hH442XKJcI9W0MIs"><rect width="640" height="640"/></clipPath></defs><g clip-path="url(#_clipPath_SbGmX3xUZbEV5C44hH442XKJcI9W0MIs)"><g><linearGradient id="_lgradient_0" x1="0" y1="1" x2="-1.8530839723940208e-16" y2="-0.008771929824561209" gradientTransform="matrix(640,0,0,16,0,0)" gradientUnits="userSpaceOnUse"><stop offset="1.3043478260869565%" stop-opacity="1" style="stop-color:rgb(40,103,125)"/><stop offset="99.1304347826087%" stop-opacity="1" style="stop-color:rgb(102,187,240)"/></linearGradient><rect x="0" y="0" width="640" height="16" transform="matrix(1,0,0,1,0,0)" fill="url(#_lgradient_0)"/></g><linearGradient id="_lgradient_1" x1="0" y1="1" x2="-1.8530839723940208e-16" y2="-0.008771929824561209" gradientTransform="matrix(640,0,0,16,0,96)" gradientUnits="userSpaceOnUse"><stop offset="1.3043478260869565%" stop-opacity="1" style="stop-color:rgb(40,103,125)"/><stop offset="99.1304347826087%" stop-opacity="1" style="stop-color:rgb(102,187,240)"/></linearGradient><rect x="0" y="96" width="640" height="16" transform="matrix(1,0,0,1,0,0)" fill="url(#_lgradient_1)"/><linearGradient id="_lgradient_2" x1="0" y1="1" x2="-1.8530839723940208e-16" y2="-0.008771929824561209" gradientTransform="matrix(640,0,0,16,0,16)" gradientUnits="userSpaceOnUse"><stop offset="1.3043478260869565%" stop-opacity="1" style="stop-color:rgb(40,103,125)"/><stop offset="99.1304347826087%" stop-opacity="1" style="stop-color:rgb(102,187,240)"/></linearGradient><rect x="0" y="16" width="640" height="16" transform="matrix(1,0,0,1,0,0)" fill="url(#_lgradient_2)"/><linearGradient id="_lgradient_3" x1="0" y1="1" x2="-1.8530839723940208e-16" y2="-0.008771929824561209" gradientTransform="matrix(640,0,0,16,0,32)" gradientUnits="userSpaceOnUse"><stop offset="1.3043478260869565%" stop-opacity="1" style="stop-color:rgb(40,103,125)"/><stop offset="99.1304347826087%" stop-opacity="1" style="stop-color:rgb(102,187,240)"/></linearGradient><rect x="0" y="32" width="640" height="16" transform="matrix(1,0,0,1,0,0)" fill="url(#_lgradient_3)"/><linearGradient id="_lgradient_4" x1="0" y1="1" x2="-1.8530839723940208e-16" y2="-0.008771929824561209" gradientTransform="matrix(640,0,0,16,0,48)" gradientUnits="userSpaceOnUse"><stop offset="1.3043478260869565%" stop-opacity="1" style="stop-color:rgb(40,103,125)"/><stop offset="99.1304347826087%" stop-opacity="1" style="stop-color:rgb(102,187,240)"/></linearGradient><rect x="0" y="48" width="640" height="16" transform="matrix(1,0,0,1,0,0)" fill="url(#_lgradient_4)"/><linearGradient id="_lgradient_5" x1="0" y1="1" x2="-1.8530839723940208e-16" y2="-0.008771929824561209" gradientTransform="matrix(640,0,0,16,0,64)" gradientUnits="userSpaceOnUse"><stop offset="1.3043478260869565%" stop-opacity="1" style="stop-color:rgb(40,103,125)"/><stop offset="99.1304347826087%" stop-opacity="1" style="stop-color:rgb(102,187,240)"/></linearGradient><rect x="0" y="64" width="640" height="16" transform="matrix(1,0,0,1,0,0)" fill="url(#_lgradient_5)"/><linearGradient id="_lgradient_6" x1="0" y1="1" x2="-1.8530839723940208e-16" y2="-0.008771929824561209" gradientTransform="matrix(640,0,0,16,0,80)" gradientUnits="userSpaceOnUse"><stop offset="1.3043478260869565%" stop-opacity="1" style="stop-color:rgb(40,103,125)"/><stop offset="99.1304347826087%" stop-opacity="1" style="stop-color:rgb(102,187,240)"/></linearGradient><rect x="0" y="80" width="640" height="16" transform="matrix(1,0,0,1,0,0)" fill="url(#_lgradient_6)"/><linearGradient id="_lgradient_7" x1="0" y1="1" x2="-1.8530839723940208e-16" y2="-0.008771929824561209" gradientTransform="matrix(640,0,0,16,0,112)" gradientUnits="userSpaceOnUse"><stop offset="1.3043478260869565%" stop-opacity="1" style="stop-color:rgb(40,103,125)"/><stop offset="99.1304347826087%" stop-opacity="1" style="stop-color:rgb(102,187,240)"/></linearGradient><rect x="0" y="112" width="640" height="16" transform="matrix(1,0,0,1,0,0)" fill="url(#_lgradient_7)"/><linearGradient id="_lgradient_8" x1="0" y1="1" x2="-1.8530839723940208e-16" y2="-0.008771929824561209" gradientTransform="matrix(640,0,0,16,0,128)" gradientUnits="userSpaceOnUse"><stop offset="1.3043478260869565%" stop-opacity="1" style="stop-color:rgb(40,103,125)"/><stop offset="99.1304347826087%" stop-opacity="1" style="stop-color:rgb(102,187,240)"/></linearGradient><rect x="0" y="128" width="640" height="16" transform="matrix(1,0,0,1,0,0)" fill="url(#_lgradient_8)"/><linearGradient id="_lgradient_9" x1="0" y1="1" x2="-1.8530839723940208e-16" y2="-0.008771929824561209" gradientTransform="matrix(640,0,0,16,0,144)" gradientUnits="userSpaceOnUse"><stop offset="1.3043478260869565%" stop-opacity="1" style="stop-color:rgb(40,103,125)"/><stop offset="99.1304347826087%" stop-opacity="1" style="stop-color:rgb(102,187,240)"/></linearGradient><rect x="0" y="144" width="640" height="16" transform="matrix(1,0,0,1,0,0)" fill="url(#_lgradient_9)"/><linearGradient id="_lgradient_10" x1="0" y1="1" x2="-1.8530839723940208e-16" y2="-0.008771929824561209" gradientTransform="matrix(640,0,0,16,0,240)" gradientUnits="userSpaceOnUse"><stop offset="1.3043478260869565%" stop-opacity="1" style="stop-color:rgb(40,103,125)"/><stop offset="99.1304347826087%" stop-opacity="1" style="stop-color:rgb(102,187,240)"/></linearGradient><rect x="0" y="240" width="640" height="16" transform="matrix(1,0,0,1,0,0)" fill="url(#_lgradient_10)"/><linearGradient id="_lgradient_11" x1="0" y1="1" x2="-1.8530839723940208e-16" y2="-0.008771929824561209" gradientTransform="matrix(640,0,0,16,0,160)" gradientUnits="userSpaceOnUse"><stop offset="1.3043478260869565%" stop-opacity="1" style="stop-color:rgb(40,103,125)"/><stop offset="99.1304347826087%" stop-opacity="1" style="stop-color:rgb(102,187,240)"/></linearGradient><rect x="0" y="160" width="640" height="16" transform="matrix(1,0,0,1,0,0)" fill="url(#_lgradient_11)"/><linearGradient id="_lgradient_12" x1="0" y1="1" x2="-1.8530839723940208e-16" y2="-0.008771929824561209" gradientTransform="matrix(640,0,0,16,0,176)" gradientUnits="userSpaceOnUse"><stop offset="1.3043478260869565%" stop-opacity="1" style="stop-color:rgb(40,103,125)"/><stop offset="99.1304347826087%" stop-opacity="1" style="stop-color:rgb(102,187,240)"/></linearGradient><rect x="0" y="176" width="640" height="16" transform="matrix(1,0,0,1,0,0)" fill="url(#_lgradient_12)"/><linearGradient id="_lgradient_13" x1="0" y1="1" x2="-1.8530839723940208e-16" y2="-0.008771929824561209" gradientTransform="matrix(640,0,0,16,0,192)" gradientUnits="userSpaceOnUse"><stop offset="1.3043478260869565%" stop-opacity="1" style="stop-color:rgb(40,103,125)"/><stop offset="99.1304347826087%" stop-opacity="1" style="stop-color:rgb(102,187,240)"/></linearGradient><rect x="0" y="192" width="640" height="16" transform="matrix(1,0,0,1,0,0)" fill="url(#_lgradient_13)"/><linearGradient id="_lgradient_14" x1="0" y1="1" x2="-1.8530839723940208e-16" y2="-0.008771929824561209" gradientTransform="matrix(640,0,0,16,0,208)" gradientUnits="userSpaceOnUse"><stop offset="1.3043478260869565%" stop-opacity="1" style="stop-color:rgb(40,103,125)"/><stop offset="99.1304347826087%" stop-opacity="1" style="stop-color:rgb(102,187,240)"/></linearGradient><rect x="0" y="208" width="640" height="16" transform="matrix(1,0,0,1,0,0)" fill="url(#_lgradient_14)"/><linearGradient id="_lgradient_15" x1="0" y1="1" x2="-1.8530839723940208e-16" y2="-0.008771929824561209" gradientTransform="matrix(640,0,0,16,0,224)" gradientUnits="userSpaceOnUse"><stop offset="1.3043478260869565%" stop-opacity="1" style="stop-color:rgb(40,103,125)"/><stop offset="99.1304347826087%" stop-opacity="1" style="stop-color:rgb(102,187,240)"/></linearGradient><rect x="0" y="224" width="640" height="16" transform="matrix(1,0,0,1,0,0)" fill="url(#_lgradient_15)"/><linearGradient id="_lgradient_16" x1="0" y1="1" x2="-1.8530839723940208e-16" y2="-0.008771929824561209" gradientTransform="matrix(640,0,0,16,0,256)" gradientUnits="userSpaceOnUse"><stop offset="1.3043478260869565%" stop-opacity="1" style="stop-color:rgb(40,103,125)"/><stop offset="99.1304347826087%" stop-opacity="1" style="stop-color:rgb(102,187,240)"/></linearGradient><rect x="0" y="256" width="640" height="16" transform="matrix(1,0,0,1,0,0)" fill="url(#_lgradient_16)"/><linearGradient id="_lgradient_17" x1="0" y1="1" x2="-1.8530839723940208e-16" y2="-0.008771929824561209" gradientTransform="matrix(640,0,0,16,0,272)" gradientUnits="userSpaceOnUse"><stop offset="1.3043478260869565%" stop-opacity="1" style="stop-color:rgb(40,103,125)"/><stop offset="99.1304347826087%" stop-opacity="1" style="stop-color:rgb(102,187,240)"/></linearGradient><rect x="0" y="272" width="640" height="16" transform="matrix(1,0,0,1,0,0)" fill="url(#_lgradient_17)"/><linearGradient id="_lgradient_18" x1="0" y1="1" x2="-1.8530839723940208e-16" y2="-0.008771929824561209" gradientTransform="matrix(640,0,0,16,0,288)" gradientUnits="userSpaceOnUse"><stop offset="1.3043478260869565%" stop-opacity="1" style="stop-color:rgb(40,103,125)"/><stop offset="99.1304347826087%" stop-opacity="1" style="stop-color:rgb(102,187,240)"/></linearGradient><rect x="0" y="288" width="640" height="16" transform="matrix(1,0,0,1,0,0)" fill="url(#_lgradient_18)"/><linearGradient id="_lgradient_19" x1="0" y1="1" x2="-1.8530839723940208e-16" y2="-0.008771929824561209" gradientTransform="matrix(640,0,0,16,0,384)" gradientUnits="userSpaceOnUse"><stop offset="1.3043478260869565%" stop-opacity="1" style="stop-color:rgb(40,103,125)"/><stop offset="99.1304347826087%" stop-opacity="1" style="stop-color:rgb(102,187,240)"/></linearGradient><rect x="0" y="384" width="640" height="16" transform="matrix(1,0,0,1,0,0)" fill="url(#_lgradient_19)"/><linearGradient id="_lgradient_20" x1="0" y1="1" x2="-1.8530839723940208e-16" y2="-0.008771929824561209" gradientTransform="matrix(640,0,0,16,0,304)" gradientUnits="userSpaceOnUse"><stop offset="1.3043478260869565%" stop-opacity="1" style="stop-color:rgb(40,103,125)"/><stop offset="99.1304347826087%" stop-opacity="1" style="stop-color:rgb(102,187,240)"/></linearGradient><rect x="0" y="304" width="640" height="16" transform="matrix(1,0,0,1,0,0)" fill="url(#_lgradient_20)"/><linearGradient id="_lgradient_21" x1="0" y1="1" x2="-1.8530839723940208e-16" y2="-0.008771929824561209" gradientTransform="matrix(640,0,0,16,0,320)" gradientUnits="userSpaceOnUse"><stop offset="1.3043478260869565%" stop-opacity="1" style="stop-color:rgb(40,103,125)"/><stop offset="99.1304347826087%" stop-opacity="1" style="stop-color:rgb(102,187,240)"/></linearGradient><rect x="0" y="320" width="640" height="16" transform="matrix(1,0,0,1,0,0)" fill="url(#_lgradient_21)"/><linearGradient id="_lgradient_22" x1="0" y1="1" x2="-1.8530839723940208e-16" y2="-0.008771929824561209" gradientTransform="matrix(640,0,0,16,0,336)" gradientUnits="userSpaceOnUse"><stop offset="1.3043478260869565%" stop-opacity="1" style="stop-color:rgb(40,103,125)"/><stop offset="99.1304347826087%" stop-opacity="1" style="stop-color:rgb(102,187,240)"/></linearGradient><rect x="0" y="336" width="640" height="16" transform="matrix(1,0,0,1,0,0)" fill="url(#_lgradient_22)"/><linearGradient id="_lgradient_23" x1="0" y1="1" x2="-1.8530839723940208e-16" y2="-0.008771929824561209" gradientTransform="matrix(640,0,0,16,0,352)" gradientUnits="userSpaceOnUse"><stop offset="1.3043478260869565%" stop-opacity="1" style="stop-color:rgb(40,103,125)"/><stop offset="99.1304347826087%" stop-opacity="1" style="stop-color:rgb(102,187,240)"/></linearGradient><rect x="0" y="352" width="640" height="16" transform="matrix(1,0,0,1,0,0)" fill="url(#_lgradient_23)"/><linearGradient id="_lgradient_24" x1="0" y1="1" x2="-1.8530839723940208e-16" y2="-0.008771929824561209" gradientTransform="matrix(640,0,0,16,0,368)" gradientUnits="userSpaceOnUse"><stop offset="1.3043478260869565%" stop-opacity="1" style="stop-color:rgb(40,103,125)"/><stop offset="99.1304347826087%" stop-opacity="1" style="stop-color:rgb(102,187,240)"/></linearGradient><rect x="0" y="368" width="640" height="16" transform="matrix(1,0,0,1,0,0)" fill="url(#_lgradient_24)"/><linearGradient id="_lgradient_25" x1="0" y1="1" x2="-1.8530839723940208e-16" y2="-0.008771929824561209" gradientTransform="matrix(640,0,0,16,0,400)" gradientUnits="userSpaceOnUse"><stop offset="1.3043478260869565%" stop-opacity="1" style="stop-color:rgb(40,103,125)"/><stop offset="99.1304347826087%" stop-opacity="1" style="stop-color:rgb(102,187,240)"/></linearGradient><rect x="0" y="400" width="640" height="16" transform="matrix(1,0,0,1,0,0)" fill="url(#_lgradient_25)"/><linearGradient id="_lgradient_26" x1="0" y1="1" x2="-1.8530839723940208e-16" y2="-0.008771929824561209" gradientTransform="matrix(640,0,0,16,0,416)" gradientUnits="userSpaceOnUse"><stop offset="1.3043478260869565%" stop-opacity="1" style="stop-color:rgb(40,103,125)"/><stop offset="99.1304347826087%" stop-opacity="1" style="stop-color:rgb(102,187,240)"/></linearGradient><rect x="0" y="416" width="640" height="16" transform="matrix(1,0,0,1,0,0)" fill="url(#_lgradient_26)"/><linearGradient id="_lgradient_27" x1="0" y1="1" x2="-1.8530839723940208e-16" y2="-0.008771929824561209" gradientTransform="matrix(640,0,0,16,0,432)" gradientUnits="userSpaceOnUse"><stop offset="1.3043478260869565%" stop-opacity="1" style="stop-color:rgb(40,103,125)"/><stop offset="99.1304347826087%" stop-opacity="1" style="stop-color:rgb(102,187,240)"/></linearGradient><rect x="0" y="432" width="640" height="16" transform="matrix(1,0,0,1,0,0)" fill="url(#_lgradient_27)"/><linearGradient id="_lgradient_28" x1="0" y1="1" x2="-1.8530839723940208e-16" y2="-0.008771929824561209" gradientTransform="matrix(640,0,0,16,0,528)" gradientUnits="userSpaceOnUse"><stop offset="1.3043478260869565%" stop-opacity="1" style="stop-color:rgb(40,103,125)"/><stop offset="99.1304347826087%" stop-opacity="1" style="stop-color:rgb(102,187,240)"/></linearGradient><rect x="0" y="528" width="640" height="16" transform="matrix(1,0,0,1,0,0)" fill="url(#_lgradient_28)"/><linearGradient id="_lgradient_29" x1="0" y1="1" x2="-1.8530839723940208e-16" y2="-0.008771929824561209" gradientTransform="matrix(640,0,0,16,0,448)" gradientUnits="userSpaceOnUse"><stop offset="1.3043478260869565%" stop-opacity="1" style="stop-color:rgb(40,103,125)"/><stop offset="99.1304347826087%" stop-opacity="1" style="stop-color:rgb(102,187,240)"/></linearGradient><rect x="0" y="448" width="640" height="16" transform="matrix(1,0,0,1,0,0)" fill="url(#_lgradient_29)"/><linearGradient id="_lgradient_30" x1="0" y1="1" x2="-1.8530839723940208e-16" y2="-0.008771929824561209" gradientTransform="matrix(640,0,0,16,0,464)" gradientUnits="userSpaceOnUse"><stop offset="1.3043478260869565%" stop-opacity="1" style="stop-color:rgb(40,103,125)"/><stop offset="99.1304347826087%" stop-opacity="1" style="stop-color:rgb(102,187,240)"/></linearGradient><rect x="0" y="464" width="640" height="16" transform="matrix(1,0,0,1,0,0)" fill="url(#_lgradient_30)"/><linearGradient id="_lgradient_31" x1="0" y1="1" x2="-1.8530839723940208e-16" y2="-0.008771929824561209" gradientTransform="matrix(640,0,0,16,0,480)" gradientUnits="userSpaceOnUse"><stop offset="1.3043478260869565%" stop-opacity="1" style="stop-color:rgb(40,103,125)"/><stop offset="99.1304347826087%" stop-opacity="1" style="stop-color:rgb(102,187,240)"/></linearGradient><rect x="0" y="480" width="640" height="16" transform="matrix(1,0,0,1,0,0)" fill="url(#_lgradient_31)"/><linearGradient id="_lgradient_32" x1="0" y1="1" x2="-1.8530839723940208e-16" y2="-0.008771929824561209" gradientTransform="matrix(640,0,0,16,0,496)" gradientUnits="userSpaceOnUse"><stop offset="1.3043478260869565%" stop-opacity="1" style="stop-color:rgb(40,103,125)"/><stop offset="99.1304347826087%" stop-opacity="1" style="stop-color:rgb(102,187,240)"/></linearGradient><rect x="0" y="496" width="640" height="16" transform="matrix(1,0,0,1,0,0)" fill="url(#_lgradient_32)"/><linearGradient id="_lgradient_33" x1="0" y1="1" x2="-1.8530839723940208e-16" y2="-0.008771929824561209" gradientTransform="matrix(640,0,0,16,0,512)" gradientUnits="userSpaceOnUse"><stop offset="1.3043478260869565%" stop-opacity="1" style="stop-color:rgb(40,103,125)"/><stop offset="99.1304347826087%" stop-opacity="1" style="stop-color:rgb(102,187,240)"/></linearGradient><rect x="0" y="512" width="640" height="16" transform="matrix(1,0,0,1,0,0)" fill="url(#_lgradient_33)"/><linearGradient id="_lgradient_34" x1="0" y1="1" x2="-1.8530839723940208e-16" y2="-0.008771929824561209" gradientTransform="matrix(640,0,0,16,0,544)" gradientUnits="userSpaceOnUse"><stop offset="1.3043478260869565%" stop-opacity="1" style="stop-color:rgb(40,103,125)"/><stop offset="99.1304347826087%" stop-opacity="1" style="stop-color:rgb(102,187,240)"/></linearGradient><rect x="0" y="544" width="640" height="16" transform="matrix(1,0,0,1,0,0)" fill="url(#_lgradient_34)"/><linearGradient id="_lgradient_35" x1="0" y1="1" x2="-1.8530839723940208e-16" y2="-0.008771929824561209" gradientTransform="matrix(640,0,0,16,0,560)" gradientUnits="userSpaceOnUse"><stop offset="1.3043478260869565%" stop-opacity="1" style="stop-color:rgb(40,103,125)"/><stop offset="99.1304347826087%" stop-opacity="1" style="stop-color:rgb(102,187,240)"/></linearGradient><rect x="0" y="560" width="640" height="16" transform="matrix(1,0,0,1,0,0)" fill="url(#_lgradient_35)"/><linearGradient id="_lgradient_36" x1="0" y1="1" x2="-1.8530839723940208e-16" y2="-0.008771929824561209" gradientTransform="matrix(640,0,0,16,0,576)" gradientUnits="userSpaceOnUse"><stop offset="1.3043478260869565%" stop-opacity="1" style="stop-color:rgb(40,103,125)"/><stop offset="99.1304347826087%" stop-opacity="1" style="stop-color:rgb(102,187,240)"/></linearGradient><rect x="0" y="576" width="640" height="16" transform="matrix(1,0,0,1,0,0)" fill="url(#_lgradient_36)"/><linearGradient id="_lgradient_37" x1="0" y1="1" x2="-1.8530839723940208e-16" y2="-0.008771929824561209" gradientTransform="matrix(640,0,0,16,0,592)" gradientUnits="userSpaceOnUse"><stop offset="1.3043478260869565%" stop-opacity="1" style="stop-color:rgb(40,103,125)"/><stop offset="99.1304347826087%" stop-opacity="1" style="stop-color:rgb(102,187,240)"/></linearGradient><rect x="0" y="592" width="640" height="16" transform="matrix(1,0,0,1,0,0)" fill="url(#_lgradient_37)"/><linearGradient id="_lgradient_38" x1="0" y1="1" x2="-1.8530839723940208e-16" y2="-0.008771929824561209" gradientTransform="matrix(640,0,0,16,0,608)" gradientUnits="userSpaceOnUse"><stop offset="1.3043478260869565%" stop-opacity="1" style="stop-color:rgb(40,103,125)"/><stop offset="99.1304347826087%" stop-opacity="1" style="stop-color:rgb(102,187,240)"/></linearGradient><rect x="0" y="608" width="640" height="16" transform="matrix(1,0,0,1,0,0)" fill="url(#_lgradient_38)"/><linearGradient id="_lgradient_39" x1="0" y1="1" x2="-1.8530839723940208e-16" y2="-0.008771929824561209" gradientTransform="matrix(640,0,0,16,0,624)" gradientUnits="userSpaceOnUse"><stop offset="1.3043478260869565%" stop-opacity="1" style="stop-color:rgb(40,103,125)"/><stop offset="99.1304347826087%" stop-opacity="1" style="stop-color:rgb(102,187,240)"/></linearGradient><rect x="0" y="624" width="640" height="16" transform="matrix(1,0,0,1,0,0)" fill="url(#_lgradient_39)"/></g></svg>